<svg width="22" height="21" viewBox="0 0 22 21" fill="none" xmlns="http://www.w3.org/2000/svg">
<path d="M20.9925 14.9381V17.7397C20.9936 17.9997 20.9363 18.2572 20.8242 18.4955C20.712 18.7338 20.5476 18.9477 20.3413 19.1235C20.1351 19.2993 19.8916 19.4332 19.6264 19.5165C19.3613 19.5998 19.0803 19.6308 18.8016 19.6074C15.709 19.2951 12.7384 18.3132 10.1285 16.7404C7.70023 15.3067 5.6415 13.3937 4.09849 11.1373C2.40003 8.70112 1.34304 5.9274 1.01315 3.04088C0.988039 2.78264 1.02107 2.52237 1.11014 2.27664C1.1992 2.03091 1.34236 1.80511 1.53049 1.6136C1.71862 1.4221 1.9476 1.26909 2.20286 1.16433C2.45811 1.05956 2.73405 1.00533 3.0131 1.00509H6.02809C6.51582 1.00063 6.98865 1.16111 7.35846 1.45663C7.72827 1.75215 7.96982 2.16254 8.03808 2.61131C8.16533 3.50786 8.40133 4.38817 8.74158 5.23542C8.87679 5.56967 8.90606 5.93293 8.8259 6.28215C8.74575 6.63138 8.55953 6.95194 8.28933 7.20584L7.01298 8.39183C8.44365 10.7298 10.5269 12.6655 13.043 13.9949L14.3193 12.8089C14.5926 12.5579 14.9375 12.3848 15.3134 12.3103C15.6892 12.2359 16.0801 12.2631 16.4398 12.3887C17.3517 12.7049 18.299 12.9242 19.2639 13.0424C19.7521 13.1064 20.1979 13.3349 20.5167 13.6844C20.8354 14.0339 21.0047 14.4801 20.9925 14.9381Z" stroke="white" stroke-width="2" stroke-linecap="round" stroke-linejoin="round"/>
</svg>
