<svg width="44" height="44" viewBox="0 0 44 44" fill="none" xmlns="http://www.w3.org/2000/svg">
<path fill-rule="evenodd" clip-rule="evenodd" d="M15.4799 5.80756C15.7489 5.62836 16.0605 5.52346 16.3831 5.5035C16.7057 5.48354 17.0279 5.54922 17.3169 5.69389L27.4974 10.7832L37.6779 5.69389C37.9573 5.55426 38.2678 5.48834 38.5799 5.50239C38.892 5.51645 39.1953 5.61001 39.461 5.7742C39.7268 5.93839 39.9462 6.16777 40.0984 6.44056C40.2506 6.71335 40.3306 7.02051 40.3307 7.33289V29.3329C40.3308 29.6346 40.2563 29.9317 40.114 30.1978C39.9717 30.4639 39.7659 30.6908 39.5149 30.8582L28.5149 38.1916C28.2459 38.3708 27.9343 38.4757 27.6117 38.4956C27.2891 38.5156 26.9669 38.4499 26.6779 38.3052L16.4974 33.2159L6.3169 38.3052C6.03746 38.4449 5.72697 38.5108 5.41491 38.4967C5.10284 38.4827 4.79954 38.3891 4.53379 38.2249C4.26803 38.0607 4.04864 37.8314 3.89643 37.5586C3.74421 37.2858 3.66423 36.9786 3.66406 36.6662V14.6662C3.66402 14.3645 3.73846 14.0674 3.88077 13.8013C4.02309 13.5352 4.22888 13.3084 4.4799 13.1409L15.4799 5.80756ZM9.16406 21.9996C9.16406 22.4858 9.35722 22.9521 9.70103 23.2959C10.0449 23.6397 10.5112 23.8329 10.9974 23.8329C11.4836 23.8329 11.9499 23.6397 12.2938 23.2959C12.6376 22.9521 12.8307 22.4858 12.8307 21.9996C12.8307 21.5133 12.6376 21.047 12.2938 20.7032C11.9499 20.3594 11.4836 20.1662 10.9974 20.1662C10.5112 20.1662 10.0449 20.3594 9.70103 20.7032C9.35722 21.047 9.16406 21.5133 9.16406 21.9996ZM18.3307 23.8329C17.8445 23.8329 17.3782 23.6397 17.0344 23.2959C16.6906 22.9521 16.4974 22.4858 16.4974 21.9996C16.4974 21.5133 16.6906 21.047 17.0344 20.7032C17.3782 20.3594 17.8445 20.1662 18.3307 20.1662C18.817 20.1662 19.2833 20.3594 19.6271 20.7032C19.9709 21.047 20.1641 21.5133 20.1641 21.9996V22.0014C20.1641 22.4876 19.9709 22.9539 19.6271 23.2978C19.2833 23.6416 18.817 23.8347 18.3307 23.8347V23.8329ZM26.9602 17.0349C26.7911 16.8598 26.5888 16.7201 26.3651 16.624C26.1415 16.528 25.9009 16.4774 25.6575 16.4753C25.414 16.4732 25.1726 16.5195 24.9473 16.6117C24.722 16.7039 24.5173 16.84 24.3452 17.0122C24.173 17.1843 24.0369 17.389 23.9447 17.6143C23.8525 17.8396 23.8062 18.081 23.8083 18.3245C23.8104 18.5679 23.861 18.8085 23.957 19.0321C24.0531 19.2558 24.1928 19.4581 24.3679 19.6272L26.7384 21.9996L24.3679 24.3701C24.0339 24.7158 23.8491 25.1789 23.8533 25.6596C23.8575 26.1403 24.0503 26.6001 24.3902 26.9401C24.7301 27.28 25.19 27.4728 25.6707 27.477C26.1514 27.4811 26.6145 27.2963 26.9602 26.9624L29.3307 24.5919L31.7012 26.9624C32.047 27.2963 32.5101 27.4811 32.9908 27.477C33.4715 27.4728 33.9313 27.28 34.2712 26.9401C34.6111 26.6001 34.804 26.1403 34.8081 25.6596C34.8123 25.1789 34.6275 24.7158 34.2936 24.3701L31.9231 21.9996L34.2936 19.6291C34.6275 19.2833 34.8123 18.8202 34.8081 18.3395C34.804 17.8588 34.6111 17.399 34.2712 17.0591C33.9313 16.7191 33.4715 16.5263 32.9908 16.5222C32.5101 16.518 32.047 16.7028 31.7012 17.0367L29.3307 19.4072L26.9602 17.0367V17.0349Z" fill="#FED325"/>
</svg>
