<svg width="48" height="45" viewBox="0 0 48 45" fill="none" xmlns="http://www.w3.org/2000/svg">
<path d="M23.9969 17.8769C25.0081 17.8769 26.0093 17.6715 26.9435 17.2726C27.8777 16.8736 28.7266 16.2889 29.4416 15.5517C30.1566 14.8146 30.7238 13.9395 31.1107 12.9763C31.4977 12.0132 31.6969 10.9809 31.6969 9.93843C31.6969 8.89594 31.4977 7.86366 31.1107 6.90052C30.7238 5.93739 30.1566 5.06226 29.4416 4.32511C28.7266 3.58796 27.8777 3.00322 26.9435 2.60428C26.0093 2.20533 25.0081 2 23.9969 2C21.9547 2 19.9962 2.83637 18.5522 4.32511C17.1081 5.81385 16.2969 7.83302 16.2969 9.93843C16.2969 12.0438 17.1081 14.063 18.5522 15.5517C19.9962 17.0405 21.9547 17.8769 23.9969 17.8769Z" fill="#FED325" stroke="#FED325" stroke-width="4" stroke-linecap="round" stroke-linejoin="round"/>
<path d="M10.8 3.42969C9.78062 4.16031 8.948 5.13455 8.37332 6.26914C7.79864 7.40372 7.499 8.6649 7.5 9.94487C7.49972 11.3145 7.84319 12.661 8.497 13.8533C9.15082 15.0456 10.0927 16.0433 11.2312 16.7492M37.2 3.42969C38.2194 4.16031 39.052 5.13455 39.6267 6.26914C40.2014 7.40372 40.501 8.6649 40.5 9.94487C40.5012 11.225 40.2016 12.4864 39.6269 13.6212C39.0523 14.756 38.2195 15.7304 37.2 16.4612" stroke="#FED325" stroke-width="4" stroke-linecap="round" stroke-linejoin="round"/>
<path d="M10.7969 40.5619V42.83H37.1969V40.5619C37.1969 36.3352 37.1969 34.2213 36.527 32.5531C35.6336 30.3303 33.9203 28.5643 31.764 27.6438C30.1481 26.9531 28.0977 26.9531 23.9969 26.9531C19.8961 26.9531 17.8468 26.9531 16.2298 27.6438C15.162 28.0997 14.1918 28.768 13.3745 29.6106C12.5573 30.4531 11.909 31.4534 11.4668 32.5543C10.7969 34.2213 10.7969 36.3352 10.7969 40.5619Z" fill="#FED325" stroke="#FED325" stroke-width="4" stroke-linecap="round" stroke-linejoin="round"/>
<path d="M46 42.8255V41.4646C46 36.384 46 33.8437 45.0408 31.9022C44.1971 30.1952 42.851 28.8073 41.1952 27.9375M2 42.8255V41.4646C2 36.384 2 33.8437 2.9592 31.9022C3.80287 30.1952 5.14905 28.8073 6.8048 27.9375" stroke="#FED325" stroke-width="4" stroke-linecap="round" stroke-linejoin="round"/>
</svg>
