<svg width="44" height="41" viewBox="0 0 44 41" fill="none" xmlns="http://www.w3.org/2000/svg">
<path fill-rule="evenodd" clip-rule="evenodd" d="M10.1946 15.1248C12.4979 14.976 14.5975 16.4186 14.9476 18.7359C15.1437 20.0342 15.3044 21.8924 15.3044 24.4972C15.3044 27.103 15.1437 28.9612 14.9476 30.2595C14.5812 32.6857 12.2961 34.1528 9.86844 33.8379C7.60435 33.544 5.37374 32.9597 3.93131 32.5332C2.30331 32.0524 0.940267 30.8212 0.533745 29.1118C0.177783 27.5969 -0.00120873 26.0493 6.14276e-06 24.4972C6.14276e-06 22.6028 0.267832 21.0059 0.533745 19.8836C0.890528 18.382 1.98479 17.2506 3.34783 16.6708C3.4167 7.43083 11.7652 0 22 0C32.2348 0 40.5833 7.43083 40.6522 16.6708C42.0152 17.2506 43.1095 18.382 43.4663 19.8827C43.7331 21.0059 44 22.6028 44 24.4972C44 26.3917 43.7322 27.9886 43.4663 29.1118C43.0808 30.7341 41.8344 31.9244 40.3174 32.4534C39.3054 35.6008 37.2948 37.7766 34.1765 39.0967C31.087 40.4032 27.0103 40.8269 22 40.8269C21.4926 40.8269 21.006 40.6357 20.6473 40.2954C20.2885 39.9551 20.087 39.4936 20.087 39.0123C20.087 38.531 20.2885 38.0695 20.6473 37.7292C21.006 37.3889 21.4926 37.1977 22 37.1977C26.907 37.1977 30.3017 36.7622 32.6174 35.7823C33.8609 35.2561 34.8174 34.5638 35.5348 33.6211C35.0718 33.7034 34.6044 33.776 34.1325 33.8389C31.7039 34.1528 29.4188 32.6857 29.0534 30.2595C28.8563 28.9612 28.6957 27.1021 28.6957 24.4981C28.6957 21.8924 28.8563 20.0342 29.0524 18.7349C29.4025 16.4186 31.5021 14.976 33.8063 15.1248C32.8948 10.1745 27.985 6.35114 22 6.35114C16.015 6.35114 11.1043 10.1745 10.1946 15.1248ZM10.3859 18.7522C10.649 18.7186 10.8278 18.783 10.933 18.8556C11.0325 18.9237 11.1282 19.0398 11.1597 19.2494C11.3252 20.3472 11.4783 22.0303 11.4783 24.4972C11.4783 26.9651 11.3252 28.6473 11.1597 29.7451C11.1282 29.9547 11.0316 30.0717 10.933 30.1398C10.8278 30.2124 10.649 30.2759 10.3859 30.2423C8.42313 29.9883 6.42114 29.4675 5.06957 29.0682C4.60757 28.9321 4.34166 28.63 4.26609 28.3143C3.97236 27.0611 3.8248 25.781 3.82609 24.4972C3.82609 22.9222 4.04896 21.5966 4.26609 20.6811C4.34166 20.3654 4.60757 20.0632 5.06957 19.9262C6.42114 19.527 8.42313 19.0071 10.3859 18.7522ZM33.067 18.8556C32.9684 18.9237 32.8718 19.0398 32.8403 19.2494C32.6748 20.3472 32.5217 22.0303 32.5217 24.4972C32.5217 26.9651 32.6748 28.6473 32.8403 29.7451C32.8718 29.9547 32.9684 30.0717 33.067 30.1398C33.1722 30.2124 33.351 30.2759 33.6141 30.2423C35.5769 29.9883 37.5789 29.4675 38.9304 29.0682C39.3924 28.9321 39.6583 28.63 39.7339 28.3143C39.951 27.3979 40.1739 26.0732 40.1739 24.4972C40.1751 23.2137 40.0276 21.934 39.7339 20.6811C39.6583 20.3654 39.3924 20.0632 38.9304 19.9262C37.5789 19.527 35.5769 19.0071 33.6141 18.7522C33.351 18.7186 33.1722 18.783 33.067 18.8556Z" fill="#FED325"/>
</svg>
